<?xml version="1.0" encoding="UTF-8"?><svg id="Layer_2" xmlns="http://www.w3.org/2000/svg" viewBox="0 0 8.74 11.36"><defs><style>.cls-1{fill:#dd1eff;}.cls-2{fill:#00b8ff;}.cls-3{fill:#fdfcfb;}</style></defs><g id="Layer_1-2"><path class="cls-1" d="M6.63.33v10.47h-1.79v-4.47H1.88v4.47H.12V3.01L2.68.33h3.95ZM1.78,4.89h2.8v-2.51h-1.43l-1.37,1.45v1.06Z"/><path class="cls-3" d="M6.16,1v9.8h-1.69v-4.19H1.67v4.19H0V3.51L2.42,1h3.74ZM1.67,5.03h2.8v-2.45h-1.43l-1.37,1.41v1.04Z"/><path class="cls-2" d="M8.69,11.34l-1.46-.05c.1-1.49.04-4.81,0-8.02-.02-1.13-.04-2.25-.05-3.26h1.46c.01,1,.03,2.12.05,3.25.05,3.23.11,6.57,0,8.08Z"/><path class="cls-3" d="M8.13,11.36l-1-.05c.07-1.45.03-4.68,0-7.8-.01-1.1-.02-2.18-.03-3.17h1c0,.98.02,2.06.03,3.16.04,3.14.07,6.39,0,7.86Z"/></g></svg>