<?xml version="1.0" encoding="UTF-8"?><svg id="Layer_2" xmlns="http://www.w3.org/2000/svg" viewBox="0 0 8.25 11.03"><defs><style>.cls-1{fill:#060b09;}.cls-2{fill:#4479ff;}.cls-3{fill:#8610ff;}</style></defs><g id="Layer_1-2"><path class="cls-3" d="M6.28.43v10.05h-1.69v-4.29H1.78v4.29H.12V2.99L2.54.43h3.74ZM1.78,4.56h2.8v-2.51h-1.43l-1.37,1.45v1.06Z"/><path d="M6.16.67v9.8h-1.69v-4.19H1.67v4.19H0V3.18L2.42.67h3.74ZM1.67,4.7h2.8v-2.45h-1.43l-1.37,1.41v1.04Z"/><path class="cls-2" d="M8.21,11.01l-1-.05c.07-1.44.03-4.67,0-7.79-.01-1.1-.02-2.18-.03-3.16h1c0,.97.02,2.05.03,3.15.04,3.13.07,6.37,0,7.85Z"/><path class="cls-1" d="M8.13,11.03l-1-.05c.07-1.43.03-4.62,0-7.71-.01-1.09-.02-2.16-.03-3.13h1c0,.96.02,2.03.03,3.12.04,3.1.07,6.31,0,7.77Z"/></g></svg>