<svg width="18" height="27" viewBox="0 0 26 39" fill="none" xmlns="http://www.w3.org/2000/svg">
  <!-- The macOS pointing-hand ("pointer") silhouette — index finger up,
       curled-finger knuckle bumps, thumb at the left — recolored to the
       site's interactive palette -->
  <path d="M6.8 22 L6.8 5 C6.8 1.6 11.2 1.6 11.2 5 L11.2 12.8 C11.3 11.1 14.5 11.1 14.6 12.9 L14.6 13.5 C14.8 11.9 17.7 12 17.8 13.8 L17.8 14.4 C18 13 20.6 13.1 20.6 14.9 L20.6 23.5 C20.6 29.8 17.2 34 12.4 34 C9.7 34 7.5 33.2 5.9 31.2 L2.4 26.2 C1.1 24.2 1.7 22 3.8 21.6 C5.1 21.4 6 22.1 6.8 23.4 Z" fill="url(#paint0_angular_ptr)" stroke="white" stroke-width="2" stroke-linejoin="round" />
  <defs>
    <radialGradient id="paint0_angular_ptr" cx="0" cy="0" r="1" gradientUnits="userSpaceOnUse" gradientTransform="translate(1 35.6179) rotate(-34.7306) scale(38.8153 38.6988)">
      <stop offset="0.0228442" stop-color="#5efffc" stop-opacity="0.8" />
      <stop offset="0.872042" stop-color="#ab8ffd" stop-opacity="0.85" />
    </radialGradient>
  </defs>
</svg>
