<?xml version="1.0" encoding="UTF-8" standalone="no"?>
<!-- Created with Inkscape (http://www.inkscape.org/) -->

<svg xmlns:dc="http://purl.org/dc/elements/1.1/" xmlns:cc="http://creativecommons.org/ns#" xmlns:rdf="http://www.w3.org/1999/02/22-rdf-syntax-ns#" xmlns:svg="http://www.w3.org/2000/svg" xmlns="http://www.w3.org/2000/svg" xmlns:sodipodi="http://sodipodi.sourceforge.net/DTD/sodipodi-0.dtd" xmlns:inkscape="http://www.inkscape.org/namespaces/inkscape" width="1200" height="3020.9148" id="svg3193" version="1.1" inkscape:version="0.48.5 r10040" sodipodi:docname="Transamerica-Logo.svg">
  <defs id="defs3195">
    <clipPath clipPathUnits="userSpaceOnUse" id="clipPath82">
      <path inkscape:connector-curvature="0" d="m 340.618,72.13 287.566,0 0,78.37 -287.566,0 0,-78.37 z" id="path84" />
    </clipPath>
    <clipPath clipPathUnits="userSpaceOnUse" id="clipPath90">
      <path inkscape:connector-curvature="0" d="m 341.681,130.4008 0,-56.4828 176.6307,0 0,56.4828" id="path92" />
    </clipPath>
  </defs>
  <sodipodi:namedview id="base" pagecolor="#ffffff" bordercolor="#666666" borderopacity="1.0" inkscape:pageopacity="0.0" inkscape:pageshadow="2" inkscape:zoom="0.50614078" inkscape:cx="394.20916" inkscape:cy="156.80482" inkscape:document-units="px" inkscape:current-layer="layer1" showgrid="false" fit-margin-top="0" fit-margin-left="0" fit-margin-right="0" fit-margin-bottom="0" inkscape:window-width="1366" inkscape:window-height="706" inkscape:window-x="-8" inkscape:window-y="-8" inkscape:window-maximized="1" />
  <metadata id="metadata3198">
    <rdf:RDF>
      <cc:Work rdf:about="">
        <dc:format>image/svg+xml</dc:format>
        <dc:type rdf:resource="http://purl.org/dc/dcmitype/StillImage" />
        <dc:title></dc:title>
      </cc:Work>
    </rdf:RDF>
  </metadata>
  <g inkscape:label="Ebene 1" inkscape:groupmode="layer" id="layer1" transform="translate(-83.887868,2558.9651)">
    <g id="g3072" transform="matrix(53.483801,0,0,-53.483801,-18190.484,4415.3653)">
      <g id="g3080">
        <path inkscape:connector-curvature="0" id="path118" style="fill:#e22739;fill-opacity:1;fill-rule:nonzero;stroke:none" d="m 354.1451,100.0033 -1.29,0 0.0552,1.1248 1.0756,0 0.1592,-1.1248" />
        <path inkscape:connector-curvature="0" id="path120" style="fill:#e22739;fill-opacity:1;fill-rule:nonzero;stroke:none" d="m 352.993,102.5799 0.0597,1.1273 0.5603,0 0.1602,-1.1273 -0.7802,0" />
        <path inkscape:connector-curvature="0" id="path122" style="fill:#e22739;fill-opacity:1;fill-rule:nonzero;stroke:none" d="m 349.9428,98.4953 1.4255,0 -0.0799,1.4807 -1.3456,0 0,-1.4807 z m 1.205,4.0872 -1.205,0 0,-1.4807 1.2852,0 -0.0802,1.4807 z m -0.1402,2.6029 -1.0648,0 0,-1.4759 1.145,0 -0.0802,1.4759 z m -0.1399,2.6056 -0.9249,0 0,-1.4821 1.0049,0 -0.08,1.4821 z m -0.1409,2.5971 -0.784,0 0,-1.4819 0.8642,0 -0.0802,1.4819 z m 1.0258,-11.8956 2.6004,0 0.1589,-1.1209 -4.5691,0 0,-1.4791 4.7709,0 0.1678,-1.1157 -4.9387,0 0,-1.4807 5.1477,0 0.1588,-1.1174 -5.3065,0 0,-1.4792 5.5177,0 0.1592,-1.1181 -5.6769,0 0,-1.4804 5.8858,0 0.1541,-1.1151 -6.0399,0 0,-1.4792 6.2552,0 0.1568,-1.1093 -6.412,0 0,-1.481 6.6223,0 0.1578,-1.1083 -6.7801,0 0,-1.4804 6.9903,0 0.1567,-1.1088 -7.147,0 0,-1.4804 7.361,0 -0.004,0 0.1579,-1.1124 -7.5153,0 0,-1.4802 7.7316,0 -0.006,0 0.1577,-1.116 -16.1452,0 0.007,0 4.3773,30.8329 -0.4369,8.1166 1.5897,0 2.4719,17.4214 0.2532,0 0,-18.8991 0.7256,0 -0.0802,1.4777 1.9449,0 -0.7805,-14.4869" />
      </g>
      <g id="g3068">
        <path inkscape:connector-curvature="0" id="path124" style="fill:#e22739;fill-opacity:1;fill-rule:nonzero;stroke:none" d="m 359.9162,76.1966 c 0,1.0611 0.8617,1.9263 1.9265,1.9263 1.0605,0 1.9257,-0.8652 1.9257,-1.9263 0,-1.0642 -0.8652,-1.9273 -1.9257,-1.9273 -1.0648,0 -1.9265,0.8642 -1.9265,1.9273 m -0.3511,0 c 0,-1.2558 1.0221,-2.2786 2.2776,-2.2786 1.255,0 2.2745,1.0228 2.2745,2.2786 0,1.2554 -1.0195,2.2745 -2.2745,2.2745 -1.2555,0 -2.2776,-1.0191 -2.2776,-2.2745" />
        <path inkscape:connector-curvature="0" id="path126" style="fill:#e22739;fill-opacity:1;fill-rule:nonzero;stroke:none" d="m 361.2753,75.1257 0,0.9435 0.68,0 c 0.1196,0 0.2104,-0.015 0.2653,-0.0415 0.1015,-0.0492 0.1541,-0.144 0.1614,-0.2896 l 0.0177,-0.3658 c 0.004,-0.087 0.007,-0.1456 0.0147,-0.174 0.007,-0.0291 0.0154,-0.0539 0.024,-0.0726 l 0.3643,0 0,0.0472 c -0.0445,0.0202 -0.0764,0.0668 -0.0948,0.1373 -0.0116,0.0399 -0.0175,0.1041 -0.02,0.1865 l -0.01,0.2943 c -0.007,0.129 -0.0306,0.2196 -0.0739,0.2782 -0.043,0.0564 -0.1077,0.1026 -0.1935,0.1373 0.0979,0.0507 0.1756,0.1165 0.2282,0.2031 0.0526,0.0829 0.0802,0.1901 0.0802,0.3233 0,0.2544 -0.1014,0.4243 -0.3084,0.5191 -0.11,0.0492 -0.2464,0.0736 -0.4156,0.0736 l -1.0195,0 0,-2.1999 0.2998,0 z m 0,1.9439 0.7275,0 c 0.1027,0 0.1829,-0.015 0.2441,-0.045 0.1127,-0.0565 0.1708,-0.1632 0.1708,-0.3208 0,-0.1445 -0.0405,-0.2476 -0.1219,-0.3015 -0.0812,-0.057 -0.1928,-0.087 -0.3332,-0.087 l -0.6873,0 0,0.7543" />
      </g>
    </g>
  </g>
</svg>
